<svg width="39" height="31" viewBox="0 0 39 31" fill="none" xmlns="http://www.w3.org/2000/svg">
<path d="M12.4857 22.4286L26.7714 8.14286M1 26.7143C0.999998 27.4711 1.30023 28.1969 1.83482 28.7326C2.3694 29.2682 3.09466 29.5699 3.85143 29.5714H35.2914C36.0482 29.5699 36.7735 29.2682 37.308 28.7326C37.8426 28.1969 38.1429 27.4711 38.1429 26.7143V20.9029C36.9092 20.5683 35.82 19.837 35.0434 18.8218C34.2668 17.8066 33.846 16.5639 33.846 15.2857C33.846 14.0075 34.2668 12.7649 35.0434 11.7497C35.82 10.7344 36.9092 10.0031 38.1429 9.66857V3.85714C38.1429 3.10037 37.8426 2.37451 37.308 1.83886C36.7735 1.3032 36.0482 1.00151 35.2914 1H3.85143C3.09466 1.00151 2.3694 1.3032 1.83482 1.83886C1.30023 2.37451 0.999998 3.10037 1 3.85714V9.65714C2.24348 9.9842 3.34366 10.7138 4.12874 11.7321C4.91382 12.7504 5.3396 13.9999 5.3396 15.2857C5.3396 16.5715 4.91382 17.8211 4.12874 18.8393C3.34366 19.8576 2.24348 20.5872 1 20.9143V26.7143Z" stroke="black" stroke-linecap="round" stroke-linejoin="round"/>
<path d="M13.9139 11C14.2928 11 14.6562 10.8495 14.9241 10.5816C15.192 10.3137 15.3425 9.9503 15.3425 9.57142C15.3425 9.19254 15.192 8.82918 14.9241 8.56127C14.6562 8.29336 14.2928 8.14285 13.9139 8.14285C13.535 8.14285 13.1717 8.29336 12.9038 8.56127C12.6359 8.82918 12.4854 9.19254 12.4854 9.57142C12.4854 9.9503 12.6359 10.3137 12.9038 10.5816C13.1717 10.8495 13.535 11 13.9139 11ZM25.3425 22.4286C25.7214 22.4286 26.0847 22.2781 26.3526 22.0101C26.6206 21.7422 26.7711 21.3789 26.7711 21C26.7711 20.6211 26.6206 20.2578 26.3526 19.9898C26.0847 19.7219 25.7214 19.5714 25.3425 19.5714C24.9636 19.5714 24.6003 19.7219 24.3323 19.9898C24.0644 20.2578 23.9139 20.6211 23.9139 21C23.9139 21.3789 24.0644 21.7422 24.3323 22.0101C24.6003 22.2781 24.9636 22.4286 25.3425 22.4286Z" stroke="black" stroke-linecap="round" stroke-linejoin="round"/>
</svg>
