<svg width="20" height="20" viewBox="0 0 20 20" fill="none" xmlns="http://www.w3.org/2000/svg">
<path d="M10.0079 3.80989e-06C8.64852 -0.00118277 7.30321 0.274809 6.05414 0.811116C4.80506 1.34742 3.67846 2.13278 2.74316 3.1192C1.80786 4.10562 1.08351 5.27239 0.614369 6.54821C0.14523 7.82403 -0.0588459 9.18211 0.0146108 10.5395C0.0880674 11.8968 0.437514 13.225 1.0416 14.4427C1.64568 15.6604 2.49172 16.7422 3.52801 17.6219C4.5643 18.5017 5.76908 19.1609 7.06874 19.5592C8.36839 19.9576 9.73563 20.0868 11.0869 19.9389C11.2272 19.9245 11.3657 19.9048 11.5041 19.8832C12.9157 19.6701 14.265 19.1561 15.4606 18.3761C17.2655 17.1998 18.6421 15.472 19.3856 13.45C20.1291 11.428 20.1997 9.22 19.5869 7.15466C18.974 5.08933 17.7105 3.27715 15.9845 1.98796C14.2585 0.698768 12.1622 0.00151077 10.0079 3.80989e-06ZM8.29578 16.1137C8.30446 16.4832 8.43646 16.8391 8.67077 17.1249C8.90508 17.4107 9.22824 17.61 9.58883 17.6909V19.2681H9.55646L9.32986 19.2555L9.19498 19.2429L8.99356 19.225L8.84969 19.207L8.65906 19.1818L8.51159 19.1584L8.33175 19.1278L8.18248 19.0991L8.00264 19.0631L7.85337 19.0289L7.67353 18.9858L7.52426 18.9444L7.34442 18.8958L7.19516 18.8491L7.02611 18.7951L6.87684 18.743L6.71138 18.6818L6.56392 18.6243L6.40026 18.5577L6.25459 18.4948L6.09453 18.4229L5.95066 18.3545L5.81218 18.2718L5.67011 18.1981L5.51544 18.1135L5.37517 18.0344L5.2241 17.9445L5.08563 17.86L5.03887 17.8294C5.15498 17.3423 5.4314 16.9083 5.82374 16.5972C6.21609 16.2861 6.70161 16.1158 7.20235 16.1137H8.29578ZM5.23849 10.6142C5.0725 10.5452 4.92599 10.4366 4.81185 10.2977C4.69771 10.1589 4.61944 9.99409 4.58391 9.8179C4.54839 9.6417 4.5567 9.45947 4.60812 9.28724C4.65955 9.11501 4.7525 8.95805 4.87881 8.83017H4.91298C5.01361 8.83005 5.11406 8.82163 5.21331 8.805V10.2437C5.21871 10.3732 5.2259 10.4955 5.23489 10.6142H5.23849ZM6.49737 3.54466C6.56092 3.48831 6.62566 3.43436 6.6916 3.3828L6.77972 3.31446C6.85166 3.26051 6.92719 3.21016 7.00273 3.1616L7.08365 3.10945C7.16638 3.05909 7.24911 3.01233 7.33543 2.96917L7.41276 2.92961C7.50268 2.88525 7.5938 2.84508 7.68612 2.80911L7.75446 2.78214C7.85157 2.74497 7.94989 2.712 8.0494 2.68322L8.10695 2.66704C8.21125 2.63826 8.31556 2.61309 8.42167 2.5933H8.47022C8.57993 2.57352 8.69143 2.55734 8.80293 2.54655H8.8371C8.954 2.53576 9.07269 2.53036 9.19678 2.53036H10.5726C11.6413 2.53604 12.6645 2.96334 13.4199 3.71938C14.1753 4.47542 14.6017 5.49907 14.6064 6.56778V8.03887C14.4361 7.96767 14.2906 7.84775 14.1883 7.69418C14.0859 7.5406 14.0311 7.36021 14.0309 7.17564V6.69007C14.0309 6.59468 13.993 6.50319 13.9255 6.43574C13.8581 6.36829 13.7666 6.33039 13.6712 6.33039H10.542C9.99585 6.33128 9.45508 6.22273 8.9516 6.01115C8.44811 5.79956 7.99214 5.48923 7.61059 5.09848C7.54273 5.0358 7.45336 5.00162 7.36099 5.00304C7.26862 5.00446 7.18034 5.04137 7.11445 5.10611C7.04855 5.17085 7.01009 5.25846 7.00703 5.35079C7.00398 5.44312 7.03657 5.53308 7.09804 5.60204C7.36052 5.87103 7.65321 6.1088 7.97027 6.31061C7.55944 6.53541 7.09877 6.65352 6.63046 6.6541C6.55852 6.6541 6.48838 6.6541 6.41465 6.64331C6.36519 6.63959 6.31551 6.64614 6.26871 6.66254C6.22191 6.67895 6.179 6.70485 6.14269 6.73863C6.10638 6.7724 6.07745 6.81333 6.05771 6.85882C6.03797 6.90432 6.02785 6.9534 6.02799 7.00299C6.02773 7.26074 5.93789 7.51038 5.77386 7.70919C5.60982 7.908 5.38179 8.04361 5.12879 8.09283V6.56778C5.1288 5.99639 5.24999 5.43151 5.48435 4.9104C5.71871 4.38929 6.06091 3.9238 6.48838 3.54466H6.49737ZM14.9661 8.83017H15.0092C15.1375 8.95693 15.2325 9.11339 15.2858 9.28568C15.339 9.45797 15.3489 9.64074 15.3146 9.81778C15.2803 9.99481 15.2027 10.1606 15.0889 10.3005C14.9751 10.4404 14.8285 10.55 14.6621 10.6196C14.6711 10.4991 14.6783 10.3786 14.6783 10.2599V8.82118C14.7738 8.83254 14.8701 8.83555 14.9661 8.83017ZM5.93807 8.51725C6.3351 8.25139 6.61259 7.84096 6.71138 7.37347C7.43083 7.35571 8.12754 7.11782 8.70761 6.69187C9.28982 6.93006 9.91294 7.05224 10.542 7.05155H13.3115V7.17744C13.3118 7.43071 13.3703 7.68052 13.4826 7.90755C13.5949 8.13458 13.7578 8.33273 13.959 8.48668V10.2509C13.958 11.2713 13.5522 12.2497 12.8307 12.9712C12.1091 13.6928 11.1308 14.0985 10.1104 14.0995H9.78666C8.76624 14.0985 7.78789 13.6928 7.06635 12.9712C6.3448 12.2497 5.93902 11.2713 5.93807 10.2509V8.51725ZM14.8348 17.9247L14.6999 18.0038L14.5488 18.0902L14.4122 18.1657L14.2593 18.2466L14.1208 18.3168L13.9644 18.3923L13.8241 18.457L13.664 18.5272L13.5237 18.5865L13.3619 18.6513L13.2198 18.7052L13.0544 18.7646L12.9105 18.8131L12.7432 18.8671L12.5994 18.9102L12.4195 18.957L12.2864 18.9912L12.1066 19.0325L11.9627 19.0649L11.7829 19.1009L11.639 19.1278L11.4592 19.1584L11.3171 19.18L11.1373 19.2034L11.0006 19.2196L10.8028 19.2375L10.6733 19.2483L10.4539 19.2609H10.3442H10.3082V17.6783C10.6667 17.5979 10.9884 17.4005 11.2225 17.1173C11.4566 16.834 11.5898 16.481 11.6012 16.1137H12.6947C13.209 16.1122 13.708 16.2889 14.1067 16.6139C14.5055 16.9388 14.7793 17.3919 14.8815 17.8959L14.8348 17.9247ZM9.78666 14.8189H10.1104C10.3696 14.8186 10.6283 14.7964 10.8837 14.7523V16.0777C10.8837 16.3258 10.7852 16.5636 10.6098 16.739C10.4344 16.9144 10.1965 17.0129 9.94851 17.0129C9.70049 17.0129 9.46263 16.9144 9.28725 16.739C9.11187 16.5636 9.01334 16.3258 9.01334 16.0777V14.7523C9.26876 14.7964 9.52747 14.8186 9.78666 14.8189ZM15.5128 17.4697C15.3274 16.8675 14.9535 16.3407 14.4461 15.9671C13.9388 15.5935 13.3248 15.3927 12.6947 15.3944H11.603V14.5671C12.3145 14.3193 12.954 13.9001 13.465 13.3465C13.9759 12.7929 14.3426 12.1219 14.5326 11.3929C14.8826 11.3346 15.2077 11.1749 15.4678 10.9335C15.7278 10.6922 15.9113 10.3799 15.9956 10.0352C16.0798 9.6906 16.0611 9.32883 15.9417 8.99475C15.8223 8.66067 15.6075 8.36896 15.3239 8.15577V6.57317C15.3239 5.30807 14.8219 4.09468 13.928 3.19945C13.0341 2.30421 11.8215 1.80031 10.5564 1.79841H9.18059C9.10147 1.79841 9.02413 1.79841 8.9468 1.79841H8.86228L8.71481 1.8092L8.6159 1.81999L8.48641 1.83618L8.3839 1.85236L8.25801 1.87574L8.15011 1.90631L8.02242 1.93509L7.9325 1.95847L7.79582 1.99803L7.71849 2.02141L7.56743 2.07177L7.50808 2.09335L7.33903 2.15989L7.30306 2.17428L7.11962 2.26599C6.69926 2.46838 6.31086 2.73135 5.96685 3.0465L5.94886 3.06628C5.46391 3.51161 5.07668 4.05276 4.81169 4.65548C4.54671 5.25821 4.40973 5.90938 4.40943 6.56778V8.28705C4.16404 8.51921 3.98841 8.81531 3.90233 9.14196C3.81625 9.46861 3.82315 9.81281 3.92226 10.1357C4.02137 10.4587 4.20873 10.7475 4.46322 10.9696C4.71772 11.1918 5.02921 11.3384 5.36258 11.3929C5.55277 12.1221 5.91975 12.7932 6.43104 13.3469C6.94232 13.9005 7.58217 14.3196 8.29398 14.5671V15.3944H7.20235C6.58587 15.3957 5.98522 15.5897 5.48444 15.9492C4.98366 16.3088 4.60779 16.8159 4.40943 17.3996C2.8548 16.2235 1.71002 14.5877 1.13752 12.7243C0.565016 10.8609 0.593873 8.86447 1.21999 7.01838C1.84611 5.17229 3.03769 3.57026 4.62567 2.43959C6.21364 1.30892 8.11735 0.707046 10.0667 0.71936C12.016 0.731674 13.912 1.35755 15.4855 2.50819C17.0591 3.65883 18.2304 5.27579 18.8331 7.12964C19.4359 8.98349 19.4395 10.9801 18.8435 12.8361C18.2475 14.6921 17.0821 16.3134 15.5128 17.4697Z" fill="black"/>
<path d="M8.08719 10.6104C8.33268 10.6099 8.56798 10.5122 8.74157 10.3386C8.91516 10.165 9.01289 9.9297 9.01337 9.68421V9.19864C9.01337 9.07701 8.98941 8.95658 8.94287 8.84421C8.89632 8.73184 8.8281 8.62974 8.7421 8.54373C8.65609 8.45773 8.55399 8.38951 8.44162 8.34296C8.32925 8.29642 8.20882 8.27246 8.08719 8.27246C7.96556 8.27246 7.84513 8.29642 7.73276 8.34296C7.62039 8.38951 7.51829 8.45773 7.43228 8.54373C7.34628 8.62974 7.27806 8.73184 7.23151 8.84421C7.18497 8.95658 7.16101 9.07701 7.16101 9.19864V9.68421C7.16149 9.9297 7.25922 10.165 7.43281 10.3386C7.6064 10.5122 7.8417 10.6099 8.08719 10.6104ZM8.08719 8.99182C8.14204 8.99182 8.19465 9.01361 8.23343 9.0524C8.27222 9.09118 8.29401 9.14379 8.29401 9.19864V9.33892C8.23184 9.30056 8.16024 9.28024 8.08719 9.28024C8.01414 9.28024 7.94254 9.30056 7.88037 9.33892V9.19864C7.88037 9.14379 7.90216 9.09118 7.94095 9.0524C7.97973 9.01361 8.03234 8.99182 8.08719 8.99182Z" fill="black"/>
<path d="M11.8098 10.6104C12.0553 10.6099 12.2906 10.5122 12.4642 10.3386C12.6378 10.165 12.7355 9.9297 12.736 9.68421V9.19864C12.736 9.07701 12.7121 8.95658 12.6655 8.84421C12.619 8.73184 12.5508 8.62974 12.4648 8.54373C12.3787 8.45773 12.2766 8.38951 12.1643 8.34296C12.0519 8.29642 11.9315 8.27246 11.8098 8.27246C11.6882 8.27246 11.5678 8.29642 11.4554 8.34296C11.343 8.38951 11.2409 8.45773 11.1549 8.54373C11.0689 8.62974 11.0007 8.73184 10.9542 8.84421C10.9076 8.95658 10.8837 9.07701 10.8837 9.19864V9.68421C10.8841 9.9297 10.9819 10.165 11.1555 10.3386C11.3291 10.5122 11.5644 10.6099 11.8098 10.6104ZM11.8098 8.99182C11.8647 8.99182 11.9173 9.01361 11.9561 9.0524C11.9949 9.09118 12.0167 9.14379 12.0167 9.19864V9.33892C11.9545 9.30056 11.8829 9.28024 11.8098 9.28024C11.7368 9.28024 11.6652 9.30056 11.603 9.33892V9.19864C11.603 9.14379 11.6248 9.09118 11.6636 9.0524C11.7024 9.01361 11.755 8.99182 11.8098 8.99182Z" fill="black"/>
<path d="M8.48455 11.7093C8.39921 11.7518 8.33422 11.8264 8.30387 11.9168C8.27352 12.0072 8.28029 12.1059 8.32269 12.1913C8.47284 12.4941 8.7046 12.749 8.99185 12.9272C9.2791 13.1054 9.61042 13.1999 9.94845 13.1999C10.2865 13.1999 10.6178 13.1054 10.9051 12.9272C11.1923 12.749 11.4241 12.4941 11.5742 12.1913C11.597 12.1488 11.611 12.1023 11.6154 12.0543C11.6198 12.0063 11.6146 11.958 11.5999 11.9121C11.5853 11.8662 11.5616 11.8237 11.5302 11.7871C11.4989 11.7506 11.4605 11.7207 11.4174 11.6992C11.3742 11.6778 11.3272 11.6652 11.2792 11.6623C11.2311 11.6594 11.1829 11.6661 11.1375 11.6821C11.0921 11.6982 11.0503 11.7232 11.0148 11.7556C10.9792 11.7881 10.9505 11.8274 10.9304 11.8712C10.8399 12.0543 10.7 12.2085 10.5265 12.3163C10.353 12.4241 10.1527 12.4813 9.94845 12.4813C9.74417 12.4813 9.54395 12.4241 9.37043 12.3163C9.19692 12.2085 9.05701 12.0543 8.96652 11.8712C8.92404 11.7858 8.84941 11.7208 8.75904 11.6905C8.66866 11.6601 8.56994 11.6669 8.48455 11.7093Z" fill="black"/>
</svg>
