<svg width="20" height="20" viewBox="0 0 20 20" fill="none" xmlns="http://www.w3.org/2000/svg">
<path d="M10.0073 2.33812e-06C7.35401 -0.00181046 4.80977 1.05058 2.93246 2.92504C1.05519 4.80049 0.000928798 7.34496 5.83998e-07 9.99733C-0.000905817 12.6506 1.05332 15.1949 2.92875 17.0713C4.80511 18.9467 7.3496 20.0009 10.0027 20C12.655 19.9991 15.1995 18.9449 17.075 17.0675C18.9495 15.1903 20.0019 12.6458 20 9.99269C19.9982 7.3431 18.9449 4.80235 17.0713 2.92875C15.1976 1.0551 12.6569 0.00185877 10.0073 2.33812e-06ZM16.9979 16.3454C16.8973 15.7353 16.6081 15.1724 16.1712 14.7355C15.2312 14.1871 14.2631 13.6886 13.2706 13.2417C13.4111 13.2353 13.5516 13.2208 13.6912 13.1982C14.3511 13.0894 14.6846 12.3352 14.5976 11.1749C14.5468 10.5876 14.3365 9.54332 13.8724 9.2895C13.8842 9.17891 13.8842 9.06651 13.8724 8.95592C13.8724 8.4193 13.4083 5.88121 13.3938 5.77238C13.382 5.71709 13.3539 5.66723 13.3141 5.62735C13.9776 5.59653 14.5885 5.25933 14.9674 4.71364C15.0445 4.58673 15.0445 4.42719 14.9674 4.3003C14.9212 4.23232 14.8514 4.18337 14.7716 4.16252C14.8025 4.12173 14.8288 4.07822 14.8514 4.03199C15.0282 3.67574 15.0572 3.26331 14.9312 2.88623C14.9004 2.79558 14.8224 2.7285 14.7281 2.71219C14.6357 2.69043 14.5378 2.72125 14.4743 2.79195C14.2423 3.03851 13.1328 3.20529 10.7178 2.92974C8.73814 2.70493 6.36683 3.37934 5.59827 5.93924C4.82971 8.49914 7.28066 11.3489 7.38218 11.4649C7.45107 11.5474 7.56347 11.5791 7.66501 11.5447C8.10735 11.4087 8.44547 11.0506 8.55697 10.6019C8.77181 10.0146 8.70201 9.361 8.36843 8.83254C8.22612 8.53069 8.2651 8.17446 8.46995 7.91157C8.60048 7.70852 8.83254 7.48371 9.07186 7.53448C9.31117 7.58525 9.36192 8.98481 9.37643 9.70998C9.37008 10.2919 9.40452 10.873 9.47795 11.4504C9.63023 12.4004 10.6672 12.9007 11.7477 13.14C12.7412 13.6041 15.4244 14.8586 15.8595 15.1777C16.2112 15.5883 16.4351 16.0923 16.5049 16.6281C16.5175 16.6843 16.5484 16.735 16.5919 16.7731C14.924 18.3966 12.715 19.3456 10.3898 19.438C8.06391 19.5304 5.78677 18.76 3.99554 17.2734C4.21038 16.511 4.5512 15.7904 5.00354 15.1414C5.90546 14.4389 6.87719 13.8316 7.90421 13.3285C8.37284 13.8007 9.02368 14.0473 9.68812 14.0029C10.2791 13.9874 10.8647 13.8778 11.4213 13.6765C11.5636 13.6285 11.6397 13.4744 11.5917 13.3321C11.5437 13.1898 11.3896 13.1136 11.2472 13.1617C9.13699 13.8868 8.40458 13.1109 8.25235 12.9006V11.8346C8.2306 11.7013 8.11548 11.6035 7.98041 11.6035C7.84534 11.6035 7.73023 11.7014 7.70847 11.8346V12.8136C6.61345 13.3538 5.58009 14.0101 4.62656 14.7715C4.14252 15.4043 3.7763 16.1185 3.54608 16.8818C1.73225 15.1758 0.66722 12.8208 0.582752 10.3325C0.499357 7.8433 1.40311 5.42321 3.09821 3.59835C4.79329 1.77364 7.14105 0.693963 9.62936 0.59534C12.1177 0.495629 14.5433 1.38486 16.3789 3.0681C18.2135 4.7523 19.3076 7.09284 19.4218 9.57999C19.5369 12.0683 18.6631 14.4993 16.9906 16.3448L16.9979 16.3454ZM7.92602 9.16612C8.1472 9.55318 8.18437 10.0182 8.02754 10.4352C7.96953 10.6382 7.85078 10.8177 7.6867 10.9501C7.20809 10.3482 5.56198 8.04938 6.14211 6.09131C6.79476 3.85056 8.91236 3.27047 10.6743 3.46633C12.9949 3.72739 14.0173 3.59686 14.4888 3.41556C14.4907 3.53975 14.4607 3.66212 14.4018 3.77088C14.2559 3.9839 14.0265 4.1262 13.7709 4.16247C13.6304 4.19148 13.538 4.32564 13.5606 4.46704C13.5833 4.61117 13.7129 4.7127 13.8579 4.6991H14.3075C13.974 4.98826 13.5452 5.14327 13.1038 5.1342C11.7549 5.1342 10.863 5.62731 10.8267 6.39599C10.8195 6.85557 10.6699 7.30153 10.3989 7.67228C10.3409 7.71579 10.1523 7.86083 10.1523 8.54248C10.1106 9.11355 10.2774 9.68099 10.6237 10.1379C11.0724 10.5467 11.6326 10.8122 12.2335 10.8993C12.3767 10.8875 12.5082 10.8168 12.5961 10.7035C12.8091 10.3744 13.0856 10.0916 13.4083 9.86952C13.4509 9.86227 13.4899 9.84504 13.5243 9.81876H13.5751C13.9721 10.5067 14.119 11.3117 13.9884 12.0958C13.9377 12.3568 13.8289 12.6687 13.5678 12.7122C12.4366 12.8935 10.1594 12.5309 9.97819 11.4069C9.9102 10.8557 9.87848 10.301 9.88392 9.74624C9.88392 8.38293 9.84041 7.21546 9.15875 7.05581H8.96295C8.54507 7.08754 8.1716 7.32685 7.96948 7.69396C7.67125 8.13449 7.65132 8.70648 7.91872 9.16606L7.92602 9.16612ZM13.3069 9.29665C13.2697 9.30571 13.2353 9.32384 13.2054 9.34741C12.7938 9.59397 12.4439 9.93116 12.1829 10.3336C11.7278 10.2285 11.31 10.0028 10.9718 9.68099C10.7217 9.18425 10.6374 8.61953 10.7325 8.07111C11.1395 7.60429 11.3662 7.00784 11.3707 6.38873C11.3707 5.98987 12.0306 5.66356 12.9226 5.66356C12.8745 5.72248 12.8537 5.79862 12.8645 5.87386C13.0168 6.77306 13.3141 8.5861 13.3359 8.99219C13.335 9.09462 13.3232 9.19705 13.2996 9.29676L13.3069 9.29665Z" fill="black"/>
</svg>
